<svg xmlns="http://www.w3.org/2000/svg" width="680.3" height="680.3" viewBox="-53.5 -63.1 680.3 680.3"><path fill="#00EB88" d="M534 0c0 4.9 6.7 5 9.5 4.2 1.8 1.2 2.4 3.6 4.8 1.2 1.2 1.2 3-.6 4.8.6 1.9 0 2.5 1 1.8 3 3.5.2 5.5 2.2 6 6 .6-1.2.6-1.8.6-2.4 2.4 1.2 4.8 2.4 7.1 4.2-1.2 1.2-2.4 1.8-3.6 2.4.6.6 1.2 1.2 1.8 1.2 3.6 1.2 4.2 3 1.8 6l-1.2 1.2c-1.3.6-2.7.8-4.2.6 1.2 1.8 1.8 3 2.4 4.2h1.8c1.8-1.8 2.4 0 3 .6-2.3 2.7-2.5 5.7-.6 8.9 0 .6.6.6 1.2.6-.6 1.2-1.8 2.4-1.8 3 .6 1.2.6 1.8 0 3-1.2 3-.6 3.6 3 5.4-.6.6-1.8 1.2-2.4 1.2-.6.6-1.2 2.4-.6 3 1 1.6 2.3 2.4 4.2 2.4 0 4.2-1.8 7.7-3 11.3-2.7-1.1-5.3-1.1-7.7 0-.6 1.2 0 1.2 1.2 1.2 1.1 1.8 1.3 3.8.6 6-1.3-.9-2.5-.9-3.6 0-.6 1.6-.2 2.2 1.2 1.8 3 .3 3 2.1 0 5.4l-3.6-1.8c-.6-1.2-1.8-2.4-3-3l-5.4-1.2c0 .6-.6.6-.6 1.2.6 1.2 1.8 2.4 3.6 3 2.4.6 2.4.6 2.4 3.6-3.6-3-4.2-3-8.9 2.4-1.2-1.2-1.8-2.4-4.2-1.8-1.2 0-2.4.6-3.6 1.2-6.9 0-27.2 2-32.1-3 .6.6.6 1.8 1.2 2.4h-3c-1.8-1.8-4-2.4-6.5-1.8-1.8-1.8-3 1.2-4.2 1.8-3.6-3-3.6-3-7.7 1.2-1.3-5.3-19-4.3-19-2.4-.6 0-.6-1.2-1.2-1.8-.6-1.2-1.8-1.8-2.4.6-.6 1.2-1.2 1.2-1.8 0 0-.6-1.2-1.2-1.2-1.2-3 1.8-6-.6-8.9 0-2.4 0-4.8.6-5.4 3.6-1.8-3-1.8-3-4.8-2.4-.6 0-.6.6-.6 0-4.2-2.4-8.3-.6-12.5-1.2-6.3 1.5-12.3.9-17.9-1.8-2 0-7.3.7-9.5 0-2.4-1.2-4.2-2.4-6.5.6-.6.6-1.8.6-1.8 0-.6-.6-2.4 1.8-1.8-.6 0-.6-.6-1.2-1.2-1.2-.6 1.2-1.2 1.8-2.4 3-2.4-2.4-3.6 1.2-6.5 1.2 0-.6-.6-1.2-1.8-2.4-2.4-2.4-2.4-2.4-5.4-.6-.6 0-1.2.6-1.2.6-2.4-2.4-6 .6-8.3-1.8h-1.2c-1.2.6-1.8 3-3 1.2-1.2-1.2-1.8 1.2-2.4-.6-1.2.6-2.4.6-3.6 1.2h-3c-2.4 1.8-4.8-1.2-7.1.6h-4.2l-.6-.6c-.6-.6-1.2-1.2-1.8-2.4-.6.6-1.2 1.2-1.8 1.2-1.6 2.1-3.6 2.5-6 1.2l-2.4 1.2c-1.4 0-11.4.8-11.9 0-1.2.6-2.4 1.8-3.6 2.4-1.2-1.2-3-1.2-4.2-.6-1.8 1.8-3-1.8-4.2 0-.6 1.2 1.2 3 .6 4.2-1.2 1.8 0 4.8-3 6 .8 2.7.2 4.8-1.8 6.5-.3 1.1-.1 2.1.6 3-2.5 4.9-4.6 11.6-7.1 16.7v4.2c1.7 1.4 1.9 3.4.6 6-.9 2.2-1.9 4.4-3 6.5.6 2.7.4 5.3-.6 7.7 0 0-.6 1.8 0 2.4 0 .6.6 1.2 1.2 2.4-3.8-.4-5.8 1.6-6 6-1.2.6-1.2 1.2-.6 1.8 1.2 1.2.6 2.4.6 3-.6 1.2-1.8 2.4 0 3.6-.6.6-.6 1.2-1.2 1.2-1.8.6-2.4 1.2-1.2 3 .6 1.2-1.8 1.8-.6 3.6 1.2 1.2-.6 1.8-1.2 3-.9 2.7-1.7 5.5-2.4 8.3v7.7c.6 3-.6 5.4-3 7.1 3.6 1.8 4.2 3 1.8 6-.9 2.7-1.1 5.5-.6 8.3 1.2 0 1.8-.6 2.4-.6 3 .6 6 1.2 8.3.6 1.8 0 2.4 1.2 3.6 1.8 1.2-.6 1.8-2.4 4.2-1.8-1.4-.4 14-.1 13.7-.6-.8-.5 7.8-1.2 7.7-1.2 3-1.2 3.6-1.2 6 .6l3.6-3.6c.6.6 1.8 1.2 2.4 1.8-.2-.2 7.4-.4 7.7-.6 1.8-1.2 3.6-1.2 4.2.6 1.1 4.5 19.4 1.4 20.2.6l3-3 .6.6 1.8 5.4c.6-.6 1.8-.6 1.8-1.2.6-1.8 1.2-1.2 2.4-.6 1.2 0 3 .6 4.2-.6h1.8c1.2 1.2 1.2-.6 1.8-1.2 1.1-1.8 1.7-1.6 1.8.6l-4.2 4.2c1.8.6 3.5.8 5.4.6.6.6 1.2.6 1.2 1.2 1.2 1.2 2.4 2.4 3.6 4.2 1.8 1.8 1.8 1.8 3.6.6 1.2-.6 1.8-1.2 3.6-1.2-.6 1.2-1.8 2.4-2.4 4.2 2.4.6 4.2.6 4.8 3.6 0 .6.6 1.2 1.2 1.2 2.2 2.2 4.8 3.6 7.7 4.2 0 0 1.8.6 1.8 1.2 1.2 1.8 1.8 4.2 1.2 6.5 2.4 1.2 2.4-1.8 4.8-1.8.6 2.4 1.2 4.8 1.8 7.7.6 0 1.2 0 3 .6-1.2 2.4-2.4 5.4 0 7.7 0 0-.6.6-.6 1.2-3.2 2.8-3.2 5.6 0 8.3l.6 1.2c-2.4 4.2-.6 6.5 2.4 8.3 1.2-.6 1.8-1.2 3.6-2.4-1.8 3.6-1.8 3.6-4.2 4.8-1.2.6-2.4 1.8-2.4 3-.6 1.8-2.4 1.2-3 2.4-.7-1.1-1.7-1.7-3-1.8-3.6-3-4.8-4.2-4.8-5.4-1.9-.5-3.7-1.3-5.4-2.4h-1.2c-.6 1.2-1.2 2.4-3 1.8-1.2 0-1.8-1.2-3-1.8h-.6c-.6 2.4-1.8 1.2-3 1.2-1.2-.6-3-1.8-3-1.2-1.2 1.2-2.4-.6-3.6 0-1.2 0-2.4-.6-3.6 1.2-4.6-.3-32.7 1.9-33.9-.6-1.4 2.2-3 2.4-4.8.6-1.2 1.8-2.4 0-3.6-.6-.3-.2-7.2 1.1-7.1 1.2-1.2-1.2-2.4-.6-3.6 0-4.7-.2-9.3.6-13.7 2.4-1.2-1.8-1.8.6-3 0-4.2-.6-8.3.6-12.5-.6h-1.2c-1.8.6-2.4 1.8-4.2 1.2-1.2 0-2.4 1.2-3.6-.6h-.6c-1.8 1.8-2.4-.6-3.6-1.2-1.7 2.4-3.4 2.4-5.4 0l-3 3c-.6-1.2-1.2-1.8-1.8-3-2.5 2.8-3.5 6-3 9.5-2.2 4.3-1.2 5.1-1.2 9.5-1.4 1.4-4.5 10.7-4.8 10.7-.4 2.8-1.2 6.1-1.2 8.9.2 2.2 0 4.4-.6 6.5 1.2 1.2-.6 1.8-1.8 2.4l-.6 1.2c1.8 1.2-1.8 3 1.2 4.2.6.6-.6 4.8-1.2 6-1.1 1.1-2 13.5-1.2 14.3 1.6 2.2-2.7 16.3-1.2 20.8v1.8c-.6-.6-1.2-1.2-1.2-.6-.6.6-1.2.6-1.2 1.2 2.4 2.4 1 17-1.2 20.2-.4 3-1 6-1.8 8.9-.3 3.6-.9 7.2-1.8 10.7-.6.6-1.2 1.8-1.8 2.4.6 1.2 3 1.2 1.2 3 0 0 .6 1.8 1.2 1.8.6.6 1.2 1.8.6 2.4-1.8 1.8 0 4.8-1.8 6.5v11.9c-.4 1.3-2.4 11.3-3.6 11.3l-.6.6-.6 9.5c.7 2.2.5 4.2-.6 6-2.7 3.1-2.7 6.9 0 11.3.6 1.2.6 3-1.8 3-1.1 1.1-2.1 2.3-3 3.6.6 1.2-1.8 2.4-.6 3.6v.6c-2.6 2.6-2.9 14.6-1.8 17.9-2.6.3-3.1.3-1.8 3v1.8l1.8 1.8c-.6 1.8-1.8 3-3 4.2h-.6c-.6-.6-1.8-1.2-1.2.6 1.2 5.4 1.2 7.1 0 13.1.4 2.4.8 4.8 1.2 7.1 1.8 1.8-1.2 3-.6 4.2-3 .6-1.2 1.8-.6 3 0 0 .6.6.6 1.2-1.8 1.2-2.4-.6-3-1.2-1.2-.6-2.4-.6-1.8.6.6 1.8-3 0-1.8 1.8.6.6.6 1.8.6 3h-12.5c0-1.2-.6-3-2.4-2.4-1.8.6-.6 1.8-.6 3v.6c-2.4-2.4-6.7 1-9.5-1.8 0 0-1.2.6-1.8.6-2-.3-3.4-1.5-4.2-3.6 0-.6.6-1.2.6-1.8-1.8 0-1.8-2.4-3-3-1.2-1.2-2.4-1.8-3.6-.6H189c0-4.4-.5-18.5 3-20.8 1.8-.6 1.8-2.4 0-4.2-1.2-1.2-2.4-2.4-1.8-4.8 0-1.8 0-3 1.8-3.6 1.8-1.2 1.8-3 1.2-4.8 0-.6-.6-.6-1.2-1.2s-.6-1.2-.6-1.2c.9-3.5 1.7-7.1 2.4-10.7 1.8-3 1.8-3 0-4.8l-.6-.6c1.2-1.2 2.4-2.4 1.8-4.2 0-1.2-.6-2.4.6-3.6 0 0 .6-.6 0-.6-1.8-5.4-.6-10.1-1.2-15.5 0-1.2-.6-2.4.6-3.6v-5.4l1.2-1.2c-.6 0-1.2-.6-1.2-1.2-1-1.3-.8-2.5.6-3.6.2-2.4 0-4.8-.6-7.1 1.2-2.4 2.4-4.8.6-7.1v-1.2c.5-2.8.7-5.5.6-8.3 0 0 0-1.2-.6-1.2-3-.6-1.2-1.8-.6-3 1.2-1.2 1.8-2.4 3-3.6l-1.8-1.8c1.2-1.2 3.6-3 1.2-4.8 0-2.5.8-4.7 2.4-6.5.6-1.2.6-1.8-.6-1.8-1.8-.6-1.2-2.4-.6-2.4 3-.6 1.8-3 1.8-3.6-.8-5.6-.8-11.1 0-16.7.6-.6-.6-1.8-.6-3 .6 0 1.8 0 2.4-.6v-1.2c-2.4-1.8-1.8-3.6-.6-5.4 4.3-4.3.9-18.7.6-25.6 4.2-2.1 1.2-19.7 1.8-20.2h-1.2V323c1.8-2.4 3.6-4.2 5.4-6.5-1.2-1.8-2.4-3-3.6-4.2 1.8 0 1.8.6 3 1.2l.6-.6c-.6-4.9 0-9.7 1.8-14.3-.6-2.4 3-4.8.6-7.7-.6-.6 0-1.8 0-3 .6-1.2 1.8-3 1.2-3-1.2-1.2-.6-1.8.6-3l-.6-1.2c-3.6-2.4-4.2-2.4-4.8-3-.6-1.2-1.2-.6-2.4 0-.6.6-2.4 1.2-3.6-.6-.6-1.2-1.2-.6-1.8.6h-3.6l-1.2 1.2h-4.2c-1.6-4.1-17.5-2.1-20.2.6h-7.1l-1.8-1.8c-.6 0-1.2-.6-1.2-.6-.6.6-.6 1.2-1.2 1.8-5.3-5.3-18-1.2-25-1.2-4.2-.6-7.7 1.2-11.9-.6-.6 0-1.8.6-2.4.6-2.4.6-4.8-2.4-7.1-.6-3.1 1-6 1-8.9 0-1.2 1.2-3 3-4.8 4.2-.6.6-1.2 1.2-.6 2.4v1.2c-2.4-.6-3 2.4-4.2 2.4-1.8.6-1.2 3-3.6 2.4l-.6.6c0 .6.6 3-1.8 1.2l-.6.6c0 1.8-.6 3.6-3 4.2.6 0-7.1 14.5-7.1 14.3 0 2.6-8 6.8-7.1 10.1-1.3.1-2.3.7-3 1.8.6 1.8-.6 2.4-1.8 3-1.8 1.2-2.4 3.6-4.2 4.2 0 0 .6 1.2.6 2.4-1.2 1.2-3.6 1.8-4.8 3.6-3.2 3.2-5.1 7.5-8.3 10.7 0 1.8-1.2 2.4-2.4 3.6-.6.6-1.2 1.2-1.8 0 0 .6-.6 1.2-.6 1.2 1.8 1.2 1.2 2.4 0 3-1.2 1.2-3 2.4-4.2 3.6-.9 0-2.9 8.3-8.3 8.3-.6.6 0 2.4-1.8 1.8-.6 0-.6-1.2-1.2-1.8-2.9 1-3.3 2.8-1.2 5.4-1.2 1.2-2.4 1.8-3.6 3l-1.8-1.8c-.6 1.8-2.4 3-5.4 3 1.2-.6 1.8-1.2 2.4-1.8v-1.2c-.6 0-.6 0-1.2.6-1.2.6-1.2 0-1.8-.6-1.2-1.8-3-3.6-4.2-4.8-.6.6 0 2.4-2.4 1.8-1.8-.6-3.6 0-4.8 1.8-1.2-1.2.6-3-1.2-4.2-.6-.6-3-1.2-4.2-1.2v-8.9c2.4.6 4.2-1.2 5.4-3.6 1.2-3 2.4-6.5 5.4-8.3 1.8-1.2 1.8-1.2.6-3 .8-1 1.8-1.8 3-2.4-1.8-2.4 0-3 1.2-3.6.6-.6.6-.6 0-1.2-1.8-2.4 3-2.4 1.8-4.2h.6c1.2 1.8 1.8-.6 1.8-.6-.6-2.4 1.8-3 2.4-4.8 0-2.4 2.4-3 3.6-4.8 1.2-1.2 1.2-1.8 0-3 1.2-.6 1.8-1.2 3-2.4l-.6-.6c-1.2-1.2-.6-1.2.6-2.4 1.8-1.2 4.2-3 3.6-6l1.2-1.2c1.2-.6 1.2-1.2 0-1.8l-.6-.6c1.2-1.3 2.6-2.2 4.2-3 2.4-1.2.6-2.4 0-3.6l.6-.6c1.8 0 4.2 0 2.4-3v-.6c.6-1.2 1.8-1.8 2.4-3.6 2-1.1 3.2-2.7 3.6-4.8 0 0-.6-.6 0-.6 1.2-1.2 3.6-2.4 3-4.8 0 0 .6 0 1.2-.6 1.2-.6 1.8-1.8 3-2.4v-3c1-1.9 2.2-3.7 3.6-5.4.6 0 1.8-1.2 1.8-1.8.6-1.8 1.2-3 3-4.2v-.6c-1.8-1.8 0-3 1.2-3 1.2-.6 1.2-1.2.6-1.8v-1.2c1.8.6 1.2-1.8 2.4-2.4 1.8 0 3-1.8 1.2-3.6.5-1.1 2.8-5.4 4.2-5.4 1.2-.6 2.4-2.4 3-3.6-1.8-1.8-.6-1.8 1.2-2.4.6 0 1.8-1.2.6-1.8 2-4.1 5.3-6.3 7.1-10.1 0-.6.6-1.8.6-1.8 1.8 0 1.2-.6 1.8-1.8 0-3 0-3 3-5.4l.6-.6c-1.2-1.2-1.2-1.8.6-2.4.6 0 1.8-1.8 1.8-1.8-1.2-1.2-.6-2.4.6-3 1.8-.6 2.4-2.4 3.6-4.2 1.2-3 2.4-6.5 5.4-7.7 1.8-.6 1.8-1.2.6-2.4-.6-.6-.6-1.8.6-1.8 1-1.3 1.8-2.7 2.4-4.2 1.2 0 1.2-1.8 3-2.4.6 0 0-1.8 0-3 .6-.6 1.8-.6 1.8-2.4 2-3.7 3.7-7.5 5.4-11.3 1.2-.6 1.8-1.8 2.4-1.8v-2.4c1.2 0 1.8-.6 1.8-1.8-.6-1.8.6-2.4 1.8-3 .6-.6 1.8-1.2 0-2.4l.6-1.2c0-.6.6-.6 1.2-.6 1.9-1.1 2.9-2.7 3-4.8 1.2-.6 1.8-1.8 3-3 0-.6.6-1.2 0-1.2.8-2.2 2-4.2 3.6-6 1.2-1.8.6-5.4 3.6-6v-3c1.2-.6 3.6-1.2 1.2-3 0 0 0-1.2.6-1.8 1.2-1.8 2.4-3 1.2-5.4 0-.6.6-1.8 1.2-2.4 1.8-1.2 1.2-4.2 3.6-4.8 0-1.2-.6-3 1.8-3.6-.7-2.1-.1-3.7 1.8-4.8-2-1 1.2-5.6 1.2-5.4.6-3 2.4-4.2 4.2-6 0 0 0-.6.6-1.2v-3.6c1.2-.6 3-1.8 3-1.8-1.2-2.4 1.2-3 1.8-4.2 1.2-1.2 1.8-2.4.6-3.6v-1.2c3 .6 3.6-2.4 5.4-3.6-1.2-1.2-1.8-2.4-.6-3.6 2.4.6 1.2-1.8 2.4-2.4.4-1.7 1-3.3 1.8-4.8 1.5-1.5 1.9-3.3 1.2-5.4.6.6 1.2.6 1.8.6 0-1.8.5-4.8 3-4.8-.6-.6-1.8-1.8 0-2.4 1.8-.6 1.8-1.2 1.2-3v.8c.9-1.3 1.7-2.7 2.4-4.2.9-1 1.5-2.2 1.8-3.6 3-.6 1.8-4.2 4.2-5.4.6 0 .6-1.2.6-1.2-1.2-1.2-.6-1.2.6-1.8 1.8-.6 2.4-2.4 4.2-3.6.6-.6 1.2-1.2 1.2-1.8l2.4-6.5c1.2 0 1.8-.6 1.8-1.8-.6-1.8.6-3 1.8-3.6 1.2-1.2 2.4-.6 3.6-.6v2.4l3.6-1.8c1.4-.6 2.4-1.6 3-3 0 0 1.2.6 1.2 1.2.6 1.2 1.8 2.4.6 4.2-.6 1.2 0 3 0 4.8 3.8-.7 5.6-3.2 5.4-7.7 1.2-1.8 2.4-2.4 4.2-1.8 0 0 .6-.6.6-1.2-.6-.6-1.2-1.8-2.4-2.4 1.2 0 1.8 0 2.4.6.6.6 1.2 1.2 1.8 1.2 3-.6 5.4 1.2 8.3-.6.6-.6 1.8-.6 1.8 0 2.4 1.8 3.6 1.2 4.8-1.2l.6-.6c3 .6 6.5-1.2 8.9 1.8 1.1 2.2 19 3.4 21.4 4.2h12.5c0 1.2.6 1.8.6 3.6l5.4-5.4v3c.6 0 .6 0 .6.6-1.8 2.4 1.2 2.4 1.8 3.6 1.2-1.2 2.4-3 4.8-1.8v6s1.2.6 1.8.6c1.3-5.2 18-1.8 23.2-1.8l.6 1.2c0 .6-.6 1.2-.6 1.2.6 0 1.2 0 1.8-.6-.1.1 11.9-3.5 11.9-4.2 2.7 0 5.8 1.8 9.5 1.8 1.8-1.2 1.8-1.2 3.6 0l2.4-2.4 1.8 1.8c1.2 1.2 2.4 1.8 3.6-.6 1.4-.3 2.6.1 3.6 1.2 2.2-2.4 4.6-2.4 7.1 0 4.1.2 8-.3 11.9-1.8h1.8c1.2.6 3-1.8 4.8.6l.6-.6c.6-3 3-2.4 4.8-2.4 1.2.6 1.2 1.2 1.8-.6 1.5-3 5.4 1.4 5.4-3.6 4.5.8 8.9.4 13.1-1.2l3 .6c.6 1.2 1.2 1.2 1.8.6.6-.6 1.2-1.2 2.4-.6.7 2.3 2.5 2.5 5.4.6 1.2 1.8 3-.6 4.2.6h.6c4.1-3.1 8.8-3.7 14.3-1.8-.6-1.8-1.2-3-1.8-4.2 3.5 0 13.4-2.2 16.7 0 2 .3 2.8-.3 2.4-1.8.6-.6 1.2-.6 1.2-.6 2.4.6 5.4.6 7.7 0 3.1-1.2 6.3-1.6 9.5-1.2l1.2-.6c0-1.8 1.2-1.8 2.4-.6 2.2.5 4.3.7 6.5.6 1.2.6 1.2 0 1.2-1.2 0 0 1.2-3 2.4 0 0 .6 1.2.6 1.8-.6 0-.6-.6-1.2 1.2-1.2 5.1 5.1 15.5-2 20.8 1.2 0 0 1.2-.6 1.8-.6h16.1V0h6.3zM219.7 165.5c-1.8-1.8-1.8-1.8-1.2-4.2.6-1.8.6-3 1.2-4.8 0-2.4 2.3-20.3.6-21.4 1.2-1.2.6-2.4.6-3.6V122c1.2-1.8-1.8-3.6.6-4.2-.2-3.4 0-6.8.6-10.1.6-.6-.6-2.4-1.2-4.2-.6 2.4-1.2 4.2-2.4 5.4l-3.6 5.4c-1.2 1.8-2.4 3.6-3 6 0 2.4-4.2 2.4-2.4 5.4-3 1.8-4.2 5.4-6 7.7-1.8 3-3.6 6.5-5.4 9.5-3.6 5.4-3.6 3.3-3.6 7.7-3 3-4.2 6.5-6.5 9.5-3 4.2-4.8 8.3-7.1 13.1-1.8 3.6-4.8 6.5-6.5 10.1-3 4.8-4.8 9.5-7.7 14.3-3.6 6-7.1 11.9-10.7 17.3 2.6 2 4.6 1.8 6-.6.6 0 1.2 1.2 2.4.6s3-1.2 3.6-.6c2.6.5 5-.1 7.1-1.8 1.2-.6 1.8 0 1.8 1.2l.6.6 3.6-1.8c.6.6 1.8 1.2 2.4 2.4.6-1.2.6-2.4 1.8-3 2.5.3 4.9 1.1 7.1 2.4.6-2.4 3 1.2 4.2-1.2.6-.6 1.8-.6 2.4-1.2h4.2c-.6-3 1.2-3 3-3.6-1.9 2.3-1.7 4.3.6 6 1.2-1.8 2.4-.6 3 0 1.2.6 2.4-1.2 1.8-1.8-.6-1.2-.6-1.8.6-2.4.2-1.8 0-3.6-.6-5.4 3 0 1.8-2.4 1.2-3.6 0-2.4 1.2-5.4-.6-7.7.5-3.4.7-6.7.6-10.1h.6c.6 0 1.2.6 1.8.6 0-4-.6-7.7-.6-11.9 1.5-2.9 2.1-5.3 5.1-6.5"/></svg>